<svg xmlns="http://www.w3.org/2000/svg" width="18.621" height="18.621" viewBox="0 0 18.621 18.621"><g transform="translate(-6313 -2702)"><circle cx="9" cy="9" r="9" transform="translate(6313.311 2702.311)" fill="#fff"/><path d="M19.184,9.873A9.311,9.311,0,1,1,9.873.563,9.309,9.309,0,0,1,19.184,9.873ZM8.221,5.518V9.873H5.559a.451.451,0,0,0-.319.77l4.314,4.291a.446.446,0,0,0,.634,0L14.5,10.643a.451.451,0,0,0-.319-.77H11.525V5.518a.452.452,0,0,0-.451-.451h-2.4A.452.452,0,0,0,8.221,5.518Z" transform="translate(6312.438 2701.438)"/></g></svg>