<svg xmlns="http://www.w3.org/2000/svg" xmlns:xlink="http://www.w3.org/1999/xlink" width="321.185" height="110.384" viewBox="0 0 321.185 110.384">
  <defs>
    <filter id="Union_5">
      <feOffset dy="3" input="SourceAlpha"/>
      <feGaussianBlur stdDeviation="3" result="blur"/>
      <feFlood flood-opacity="0.161" result="color"/>
      <feComposite operator="out" in="SourceGraphic" in2="blur"/>
      <feComposite operator="in" in="color"/>
      <feComposite operator="in" in2="SourceGraphic"/>
    </filter>
  </defs>
  <g id="Group_637" data-name="Group 637" transform="translate(-9699.073 -12437.384)">
    <g id="Group_632" data-name="Group 632" transform="translate(9699.073 12444.384)" opacity="0.9">
      <g data-type="innerShadowGroup">
        <path id="Union_5-2" data-name="Union 5" d="M4,0H310.185a4,4,0,0,1,4,4V99.384a4,4,0,0,1-4,4H4a4,4,0,0,1-4-4V4A4,4,0,0,1,4,0Z" transform="translate(0)"/>
        <g transform="matrix(1, 0, 0, 1, 0, -7)" filter="url(#Union_5)">
          <path id="Union_5-3" data-name="Union 5" d="M4,0H310.185a4,4,0,0,1,4,4V99.384a4,4,0,0,1-4,4H4a4,4,0,0,1-4-4V4A4,4,0,0,1,4,0Z" transform="translate(0 7)" fill="#fff"/>
        </g>
      </g>
    </g>
    <text id="Write_your_helping_guide_here..." data-name="Write your helping guide here..." transform="translate(9707.789 12468.768)" fill="#dbddf0" font-size="16" font-family="CenturyGothic, Century Gothic"><tspan x="0" y="0">Write your helping guide here...</tspan></text>
    <path id="Icon_ionic-ios-close-circle" data-name="Icon ionic-ios-close-circle" d="M10.25,2.25a8,8,0,1,0,8,8A8,8,0,0,0,10.25,2.25Zm2.027,10.9L10.25,11.119,8.223,13.146a.615.615,0,1,1-.869-.869L9.381,10.25,7.354,8.223a.615.615,0,0,1,.869-.869L10.25,9.381l2.027-2.027a.615.615,0,0,1,.869.869L11.119,10.25l2.027,2.027a.618.618,0,0,1,0,.869A.611.611,0,0,1,12.277,13.146Z" transform="translate(10002.008 12435.134)" fill="#dbddf0"/>
  </g>
</svg>
